<svg xmlns="http://www.w3.org/2000/svg" width="4722.667" height="4722.667" preserveAspectRatio="xMidYMid meet" version="1.0" viewBox="0 0 3542 3542"><metadata>Created by potrace 1.11, written by Peter Selinger 2001-2013</metadata><g fill="#000" stroke="none"><path d="M12907 33494 c-1 -1 -69 -4 -152 -8 -82 -3 -161 -8 -175 -10 -14 -3 -59 -7 -100 -11 -41 -3 -84 -8 -95 -10 -11 -3 -40 -7 -65 -9 -25 -3 -56 -7 -70 -10 -14 -2 -43 -7 -65 -10 -55 -8 -87 -14 -178 -32 -42 -8 -90 -17 -105 -20 -15 -3 -35 -7 -44 -10 -10 -3 -30 -7 -45 -10 -16 -3 -64 -14 -108 -25 -44 -12 -89 -22 -100 -25 -87 -16 -484 -131 -640 -185 -335 -115 -761 -305 -1050 -469 -38 -21 -77 -42 -85 -46 -18 -9 -246 -145 -315 -188 -340 -213 -915 -643 -1145 -856 -9 -8 -32 -28 -51 -45 -449 -392 -983 -925 -1365 -1365 -21 -25 -41 -47 -44 -50 -12 -11 -241 -281 -305 -360 -38 -47 -72 -87 -75 -90 -3 -3 -21 -25 -40 -50 -19 -25 -39 -50 -45 -57 -108 -130 -436 -566 -608 -810 -27 -37 -69 -97 -93 -131 -43 -60 -385 -575 -411 -617 -6 -11 -54 -87 -106 -170 -138 -220 -284 -463 -351 -585 -16 -30 -33 -56 -38 -58 -4 -2 -8 -7 -8 -12 0 -4 -51 -99 -113 -211 -159 -286 -245 -450 -415 -789 -136 -272 -182 -368 -290 -600 -87 -187 -101 -218 -126 -278 -15 -35 -39 -91 -55 -125 -16 -34 -47 -107 -71 -162 -23 -55 -48 -113 -55 -130 -88 -196 -329 -816 -447 -1144 -158 -444 -392 -1184 -454 -1433 -8 -32 -13 -52 -50 -188 -20 -74 -38 -142 -39 -150 -2 -8 -8 -30 -14 -47 -5 -18 -8 -33 -6 -33 2 0 -2 -18 -10 -40 -8 -22 -14 -42 -14 -45 -1 -6 -4 -19 -45 -195 -19 -80 -37 -156 -39 -170 -3 -14 -16 -74 -30 -135 -20 -87 -79 -369 -103 -490 -4 -19 -18 -99 -29 -160 -5 -28 -8 -47 -20 -105 -2 -14 -7 -41 -10 -60 -4 -19 -18 -102 -31 -185 -14 -82 -28 -163 -30 -180 -2 -16 -6 -43 -8 -60 -3 -16 -8 -50 -11 -75 -3 -25 -12 -81 -20 -125 -8 -44 -17 -100 -20 -125 -3 -25 -10 -70 -15 -100 -5 -30 -12 -77 -15 -105 -3 -27 -8 -61 -10 -75 -2 -14 -9 -63 -15 -110 -10 -80 -13 -106 -25 -190 -2 -19 -7 -62 -10 -95 -3 -33 -7 -71 -10 -85 -2 -14 -7 -56 -10 -95 -3 -38 -8 -88 -10 -110 -7 -64 -15 -145 -20 -215 -21 -271 -23 -298 -31 -465 -3 -77 -8 -171 -10 -210 -4 -89 -4 -794 0 -900 7 -164 18 -381 21 -415 2 -19 6 -75 10 -125 4 -49 8 -97 10 -105 2 -8 6 -53 10 -100 3 -47 8 -96 10 -110 2 -14 13 -99 25 -190 11 -91 25 -190 30 -220 5 -30 12 -73 15 -95 5 -32 43 -250 60 -340 2 -11 13 -63 24 -115 12 -52 24 -110 27 -128 9 -55 109 -448 149 -582 64 -219 186 -574 240 -695 7 -16 29 -68 48 -115 87 -212 240 -515 365 -725 93 -156 272 -419 355 -521 244 -302 393 -455 667 -688 102 -87 315 -234 470 -326 364 -215 785 -371 1180 -439 163 -28 163 -28 421 -49 103 -9 387 -8 519 2 106 8 173 15 310 32 45 6 193 30 240 39 14 3 48 9 75 15 28 5 59 11 70 14 11 2 40 9 65 15 25 5 57 12 72 15 45 8 315 83 469 130 384 118 722 254 1104 447 82 41 177 90 210 109 144 79 341 194 356 206 8 8 19 14 24 14 9 0 39 19 347 224 208 139 426 294 592 421 224 172 545 434 686 561 19 17 85 75 145 129 61 54 115 103 120 109 6 6 22 21 36 34 l26 23 -6 -73 c-12 -155 -3 -649 13 -678 2 -3 7 -30 10 -60 4 -30 13 -89 22 -130 113 -557 363 -983 793 -1353 30 -27 189 -136 241 -166 220 -129 576 -246 840 -277 30 -3 57 -8 60 -9 18 -11 231 -20 450 -20 223 0 370 6 475 20 17 2 58 6 92 10 34 3 70 8 81 10 10 2 43 6 73 10 30 4 90 13 134 21 44 8 91 17 105 19 14 2 35 6 46 9 179 38 233 51 314 72 52 15 104 28 116 30 11 2 101 31 200 64 98 33 186 62 194 64 14 4 117 45 165 65 11 5 49 21 85 36 162 68 367 170 550 273 116 66 356 215 425 266 11 8 58 42 106 75 90 64 374 289 463 366 6 6 61 53 121 105 61 52 128 111 150 131 22 19 67 60 100 90 225 203 695 675 846 850 11 13 33 38 47 54 69 78 161 183 183 209 13 16 29 34 34 40 73 79 461 573 550 700 89 126 89 123 9 -109 -42 -121 -102 -296 -135 -390 -72 -211 -168 -485 -248 -715 -34 -96 -76 -215 -92 -265 -17 -49 -33 -97 -36 -105 -4 -8 -7 -17 -8 -20 -1 -3 -4 -12 -8 -20 -3 -8 -27 -76 -52 -150 -26 -74 -71 -202 -100 -285 -29 -82 -85 -242 -125 -355 -39 -113 -105 -299 -147 -415 -41 -115 -76 -217 -78 -225 -2 -8 -9 -28 -15 -45 -7 -16 -34 -93 -62 -170 -27 -77 -64 -183 -83 -235 -18 -52 -58 -166 -89 -254 -218 -617 -679 -1837 -790 -2090 -8 -17 -37 -89 -66 -161 -29 -71 -61 -149 -71 -172 -11 -23 -19 -44 -19 -47 0 -9 -321 -756 -400 -931 -13 -27 -34 -75 -47 -105 -14 -30 -33 -73 -43 -95 -10 -22 -58 -125 -105 -230 -94 -205 -328 -680 -410 -835 -181 -337 -174 -324 -289 -523 -50 -87 -102 -177 -115 -200 -74 -128 -352 -561 -468 -727 -157 -226 -386 -525 -493 -645 -109 -122 -229 -245 -321 -330 -247 -226 -510 -401 -769 -510 -177 -75 -396 -133 -575 -152 -134 -15 -394 -9 -485 11 -201 44 -322 104 -446 223 -139 132 -236 299 -262 448 -9 50 -8 247 1 300 34 206 195 492 357 633 170 148 347 218 648 256 168 21 289 185 356 481 24 108 27 130 33 278 12 282 -55 595 -175 820 -117 220 -321 439 -495 531 -72 39 -207 82 -285 91 -26 4 -58 8 -72 11 -57 9 -276 3 -357 -10 -16 -3 -48 -8 -73 -11 -229 -32 -569 -162 -777 -297 -216 -141 -445 -367 -579 -573 -21 -33 -41 -62 -44 -65 -7 -7 -29 -43 -37 -60 -4 -8 -20 -37 -36 -65 -144 -243 -268 -576 -326 -870 -40 -200 -51 -313 -51 -515 1 -185 15 -358 40 -480 6 -25 12 -56 14 -70 22 -122 99 -344 168 -485 64 -131 181 -326 199 -333 5 -2 9 -10 9 -17 0 -7 4 -15 8 -17 4 -1 24 -25 45 -51 159 -211 411 -446 627 -586 159 -103 439 -220 658 -275 112 -28 290 -62 377 -72 33 -3 68 -8 77 -9 137 -26 801 -26 978 0 14 2 54 7 90 10 103 10 135 15 255 41 39 8 81 17 95 20 162 32 618 208 686 265 8 6 14 9 14 5 0 -8 148 81 299 180 24 16 51 34 60 39 9 6 18 12 21 15 3 3 41 32 85 65 195 145 342 280 605 554 106 109 407 466 525 621 28 36 52 67 55 70 13 11 155 206 266 365 338 480 640 982 971 1610 63 120 387 766 389 775 0 3 27 59 58 125 90 187 218 464 298 645 11 25 28 63 38 85 50 106 300 699 393 931 209 518 521 1342 742 1959 148 415 208 582 213 595 3 8 6 17 7 20 1 3 4 12 8 20 14 35 253 716 282 805 8 22 48 139 90 260 42 121 78 225 79 230 2 6 6 17 9 25 3 8 13 38 22 65 187 561 843 2515 925 2755 61 179 120 350 130 380 23 69 201 586 241 700 17 47 32 90 33 95 2 6 6 17 9 25 8 21 80 229 111 320 14 41 75 215 137 385 101 281 130 362 199 550 12 33 26 69 31 80 5 11 22 56 38 100 29 80 231 594 256 650 7 17 39 93 70 170 32 77 69 165 82 195 14 30 31 69 38 85 47 111 156 357 198 445 27 58 62 132 77 165 82 175 90 190 91 165 4 -80 -5 -282 -16 -365 -2 -16 -7 -57 -10 -90 -6 -56 -9 -81 -20 -160 -2 -16 -7 -52 -10 -80 -3 -27 -8 -59 -10 -70 -2 -11 -7 -42 -10 -70 -4 -27 -11 -68 -15 -90 -5 -22 -12 -67 -15 -100 -4 -33 -9 -63 -11 -66 -2 -4 -40 -208 -49 -269 -1 -8 -5 -26 -8 -40 -5 -22 -27 -136 -43 -225 -3 -16 -12 -61 -20 -100 -9 -38 -18 -81 -20 -95 -3 -14 -25 -119 -50 -235 -51 -234 -50 -229 -65 -305 -6 -30 -17 -82 -24 -115 -20 -85 -74 -335 -79 -365 -5 -28 -54 -256 -92 -430 -14 -63 -28 -126 -30 -140 -3 -14 -11 -53 -19 -88 -8 -34 -17 -77 -20 -95 -3 -17 -8 -39 -10 -47 -2 -8 -6 -26 -9 -40 -2 -14 -21 -101 -41 -195 -20 -93 -38 -177 -40 -185 -14 -65 -78 -363 -85 -395 -10 -41 -79 -366 -85 -394 -13 -64 -57 -273 -65 -301 -5 -19 -11 -48 -14 -65 -3 -16 -17 -84 -31 -150 -15 -66 -28 -129 -31 -140 -2 -11 -8 -40 -14 -65 -5 -25 -12 -56 -14 -70 -3 -14 -8 -36 -11 -50 -3 -14 -8 -36 -11 -50 -2 -14 -11 -54 -19 -90 -8 -36 -17 -81 -20 -100 -3 -19 -10 -53 -16 -75 -15 -61 -25 -108 -33 -150 -3 -16 -25 -125 -62 -300 -2 -11 -6 -31 -9 -45 -3 -14 -8 -36 -10 -50 -3 -14 -10 -47 -16 -75 -6 -27 -12 -61 -15 -75 -3 -14 -20 -99 -39 -190 -34 -163 -90 -442 -99 -490 -2 -14 -7 -36 -10 -50 -3 -14 -8 -36 -10 -50 -2 -14 -20 -104 -40 -200 -19 -96 -37 -186 -39 -200 -13 -67 -65 -335 -72 -370 -3 -14 -10 -47 -15 -75 -17 -98 -21 -121 -30 -160 -5 -22 -11 -56 -15 -75 -3 -19 -12 -69 -20 -110 -17 -84 -17 -82 -39 -200 -9 -47 -18 -94 -20 -105 -6 -33 -78 -418 -82 -445 -3 -14 -11 -59 -19 -100 -8 -41 -17 -90 -20 -107 -3 -18 -7 -48 -10 -65 -3 -18 -8 -46 -12 -63 -3 -16 -7 -39 -9 -50 -2 -11 -10 -60 -19 -110 -9 -49 -18 -101 -20 -115 -5 -34 -35 -209 -41 -240 -2 -14 -7 -47 -10 -75 -4 -27 -8 -53 -10 -56 -1 -3 -6 -28 -9 -55 -3 -27 -8 -60 -11 -74 -3 -14 -8 -41 -10 -60 -4 -28 -32 -218 -59 -390 -2 -14 -9 -62 -15 -107 -6 -46 -13 -97 -15 -115 -3 -18 -7 -51 -10 -73 -3 -22 -8 -58 -11 -80 -2 -22 -7 -58 -10 -80 -3 -22 -7 -51 -9 -65 -2 -14 -6 -50 -10 -80 -5 -51 -11 -98 -20 -160 -2 -14 -7 -54 -10 -90 -3 -36 -8 -76 -10 -90 -2 -14 -6 -54 -10 -90 -4 -36 -8 -76 -10 -90 -2 -14 -6 -54 -10 -90 -3 -36 -8 -81 -10 -100 -3 -19 -7 -66 -10 -105 -3 -38 -7 -88 -10 -110 -5 -49 -13 -129 -20 -215 -2 -36 -7 -94 -10 -130 -13 -160 -13 -150 -30 -445 -26 -427 -26 -1211 0 -1485 1 -19 6 -73 10 -120 10 -131 23 -252 30 -300 2 -14 9 -63 15 -110 6 -47 20 -132 31 -190 18 -101 21 -119 35 -185 12 -63 76 -312 89 -353 130 -384 314 -627 570 -756 64 -31 186 -71 248 -80 27 -4 59 -10 70 -12 30 -7 232 -6 292 1 383 45 838 441 1330 1160 38 55 71 102 75 105 25 21 460 714 565 901 135 239 167 296 175 309 16 26 95 171 151 275 29 55 72 136 96 180 56 104 521 1034 595 1190 31 66 84 179 118 250 34 72 71 153 82 180 12 28 25 55 29 60 3 6 60 127 124 270 65 143 133 293 151 333 19 41 34 75 34 77 0 2 13 32 29 67 36 77 177 402 260 598 34 80 72 170 85 200 14 30 33 75 44 100 11 25 70 167 131 315 62 149 118 284 126 300 7 17 77 185 155 375 78 190 148 359 155 375 7 17 77 185 155 375 164 402 217 530 240 585 9 22 25 60 35 85 10 25 26 64 36 87 11 24 19 45 19 49 0 3 13 36 29 72 26 63 42 100 46 112 1 3 6 16 12 30 6 14 54 133 108 265 138 340 145 358 155 380 5 11 45 112 90 225 45 113 87 219 95 235 20 45 550 1375 686 1725 66 168 124 314 129 325 5 11 56 142 114 292 58 149 110 282 115 295 5 12 40 102 76 198 37 96 71 184 76 195 5 11 69 178 143 370 213 557 557 1426 663 1675 8 19 18 44 23 55 4 11 15 36 23 55 8 19 31 73 50 120 51 122 177 420 192 455 8 17 37 84 65 150 29 66 60 138 70 160 10 22 28 64 40 93 22 50 49 76 31 29 -5 -13 -12 -39 -15 -58 -3 -19 -8 -43 -10 -54 -32 -142 -60 -261 -71 -310 -15 -61 -94 -408 -100 -435 -2 -8 -10 -45 -19 -81 -8 -37 -17 -78 -20 -90 -7 -36 -147 -639 -192 -829 -14 -58 -32 -134 -40 -170 -8 -36 -22 -94 -30 -130 -9 -36 -17 -72 -19 -80 -2 -8 -13 -53 -24 -100 -11 -47 -22 -97 -25 -110 -3 -14 -10 -45 -17 -70 -6 -25 -12 -49 -13 -55 -2 -5 -6 -28 -10 -50 -4 -22 -12 -54 -17 -71 -5 -17 -11 -40 -13 -50 -2 -10 -21 -89 -41 -174 -20 -85 -39 -164 -41 -175 -5 -28 -62 -269 -79 -335 -16 -61 -95 -393 -101 -425 -2 -11 -6 -32 -10 -47 -3 -15 -5 -29 -4 -30 1 -2 -3 -16 -9 -31 -6 -15 -13 -40 -16 -55 -8 -43 -12 -60 -45 -197 -17 -71 -40 -168 -51 -215 -11 -47 -22 -94 -24 -105 -3 -11 -30 -126 -61 -255 -30 -129 -57 -246 -60 -260 -6 -27 -50 -216 -58 -245 -1 -5 -8 -37 -15 -70 -7 -33 -16 -71 -21 -85 -5 -14 -11 -41 -14 -60 -3 -19 -10 -51 -16 -70 -6 -19 -13 -51 -16 -70 -3 -19 -7 -37 -9 -40 -2 -3 -20 -78 -40 -165 -20 -88 -68 -295 -107 -460 -38 -165 -71 -307 -73 -315 -5 -24 -39 -169 -93 -400 -57 -241 -142 -607 -147 -630 -2 -8 -36 -152 -75 -320 -39 -168 -84 -361 -100 -430 -32 -138 -88 -377 -175 -750 -31 -135 -58 -249 -59 -255 -8 -36 -30 -131 -31 -135 -9 -30 -89 -371 -99 -420 -3 -14 -7 -35 -10 -47 -4 -13 -8 -31 -10 -40 -6 -23 -95 -403 -101 -429 -2 -10 -9 -39 -16 -64 -6 -25 -13 -54 -15 -65 -2 -11 -6 -29 -8 -40 -6 -27 -71 -299 -97 -404 -12 -46 -23 -94 -25 -107 -2 -13 -9 -35 -14 -49 -5 -14 -8 -25 -6 -25 2 0 -2 -24 -10 -52 -13 -50 -61 -251 -69 -291 -3 -10 -7 -27 -10 -37 -3 -10 -8 -27 -10 -37 -2 -10 -22 -90 -44 -178 -66 -265 -169 -705 -195 -835 -2 -14 -25 -122 -49 -240 -25 -118 -48 -231 -51 -250 -3 -19 -10 -60 -16 -90 -35 -183 -65 -410 -77 -590 -14 -194 -7 -589 11 -700 3 -14 10 -59 16 -100 57 -360 248 -716 463 -862 107 -73 272 -136 402 -154 168 -23 367 -23 565 2 294 36 738 193 1055 373 183 104 363 218 510 321 140 100 230 164 235 170 3 3 41 33 85 67 154 116 357 289 570 483 184 169 555 552 720 745 33 39 62 72 65 75 13 12 164 194 236 285 43 55 84 105 89 111 6 6 17 22 25 34 8 12 27 36 42 54 15 17 28 34 28 38 0 4 6 13 12 20 15 15 66 82 88 114 8 12 46 67 84 121 201 283 422 634 561 888 18 33 49 89 69 125 203 367 430 914 490 1180 26 118 30 154 30 265 -1 89 -5 119 -21 156 -52 115 -179 165 -296 115 -57 -24 -131 -87 -187 -158 -99 -126 -140 -201 -331 -608 -28 -58 -54 -112 -59 -120 -5 -8 -31 -60 -59 -115 -481 -953 -1177 -1878 -1766 -2346 -347 -276 -693 -418 -1000 -411 -247 6 -389 113 -438 330 -14 61 -16 244 -3 332 2 19 7 60 11 90 3 30 8 66 10 80 2 14 7 48 10 75 8 69 53 368 70 465 3 17 7 45 10 63 3 17 12 66 20 107 8 41 17 91 20 110 3 19 8 46 10 60 10 49 15 75 20 100 2 14 9 50 15 80 6 30 13 66 16 80 2 14 7 36 10 50 3 14 8 36 10 50 3 14 12 57 20 95 8 39 17 81 20 95 3 14 7 33 10 42 3 9 7 25 9 35 13 55 86 371 89 388 3 11 13 58 25 105 11 47 22 97 24 110 3 14 12 52 20 85 8 33 18 78 23 100 4 22 8 42 9 45 0 3 8 37 18 75 19 79 97 419 103 450 2 11 6 29 9 40 26 112 57 246 61 269 3 16 7 33 10 37 3 5 7 21 9 36 2 16 11 57 20 93 9 36 18 76 21 90 5 25 64 275 110 470 36 152 62 262 68 290 3 14 25 111 51 215 49 205 145 610 150 635 2 8 13 53 25 100 12 47 23 92 25 100 2 8 9 38 15 65 6 28 14 61 16 74 3 14 7 28 9 31 2 4 14 49 25 101 25 110 19 82 69 289 92 383 152 637 157 664 3 16 7 32 9 36 2 3 6 17 8 31 3 13 12 51 20 84 9 33 18 71 20 85 3 14 10 45 17 70 7 25 14 56 16 70 3 14 7 33 10 42 3 9 7 25 9 35 2 10 17 74 33 143 17 69 80 339 142 600 152 649 148 630 170 723 21 89 39 170 46 202 2 11 24 106 49 210 25 105 48 201 51 215 6 28 36 159 64 275 10 44 35 150 55 235 21 85 39 162 41 170 20 85 66 278 69 290 1 8 8 33 13 55 6 22 13 51 16 65 2 14 13 61 24 105 12 44 23 91 26 105 2 14 21 93 41 175 20 83 50 206 66 275 17 69 32 133 35 143 2 9 6 25 8 35 18 78 39 166 66 277 18 72 34 137 35 145 2 8 4 15 5 15 1 0 3 9 5 20 2 11 36 151 75 310 40 160 73 297 75 305 1 8 8 35 15 60 7 25 13 52 15 61 2 9 15 65 30 125 14 60 28 117 31 127 2 9 6 26 9 37 3 11 7 28 9 38 22 88 98 401 102 417 3 11 7 30 10 42 7 34 102 429 119 493 18 72 35 140 40 165 2 11 15 67 30 125 32 129 31 124 45 185 6 28 23 97 37 155 14 58 26 112 28 120 8 38 57 239 65 270 6 19 12 46 14 60 3 14 12 52 20 85 36 141 138 552 142 570 6 31 69 270 97 370 14 50 35 124 47 165 52 190 22 327 -101 450 -55 56 -182 130 -221 130 -8 0 -18 3 -22 7 -3 4 -12 8 -19 9 -7 1 -40 7 -74 13 -124 23 -251 28 -408 17 -55 -4 -102 -9 -105 -11 -3 -1 -26 -6 -51 -9 -127 -17 -309 -80 -457 -158 -85 -46 -94 -48 -113 -34 -20 14 -26 12 -88 -27 -72 -46 -70 -44 -156 -115 -264 -216 -608 -656 -898 -1147 -7 -11 -19 -31 -28 -45 -9 -14 -28 -45 -42 -70 -14 -25 -70 -124 -124 -220 -55 -96 -121 -215 -148 -265 -26 -49 -58 -108 -70 -130 -46 -84 -152 -286 -222 -420 -78 -149 -523 -1043 -591 -1185 -22 -47 -66 -139 -97 -205 -32 -66 -70 -147 -85 -180 -15 -33 -43 -94 -63 -135 -19 -41 -49 -105 -66 -142 -17 -38 -45 -98 -62 -135 -26 -57 -124 -273 -199 -438 -37 -81 -76 -170 -261 -590 -105 -236 -196 -443 -204 -460 -7 -16 -34 -79 -60 -140 -26 -60 -55 -129 -66 -152 -10 -24 -28 -63 -38 -87 -11 -23 -99 -229 -196 -457 -97 -228 -185 -432 -195 -454 -9 -22 -52 -123 -95 -225 -64 -154 -193 -460 -225 -535 -4 -11 -15 -38 -25 -60 -9 -22 -20 -49 -25 -60 -5 -11 -37 -87 -70 -170 -34 -82 -68 -163 -76 -179 -8 -16 -14 -34 -14 -40 0 -6 -7 -24 -16 -41 -8 -16 -27 -59 -40 -95 -14 -36 -32 -78 -39 -95 -7 -16 -79 -192 -160 -390 -81 -198 -153 -373 -160 -390 -7 -16 -34 -82 -59 -145 -26 -63 -51 -124 -56 -135 -5 -11 -19 -45 -30 -75 -12 -30 -27 -68 -34 -85 -8 -16 -55 -131 -106 -255 -50 -124 -98 -239 -106 -257 -8 -17 -14 -34 -14 -38 0 -3 -8 -25 -19 -48 -20 -45 -97 -232 -205 -497 -37 -91 -73 -178 -81 -195 -7 -16 -43 -104 -80 -195 -37 -91 -72 -178 -79 -195 -18 -41 -5 -11 -317 -767 -260 -633 -518 -1252 -559 -1343 -10 -22 -30 -69 -44 -105 -15 -36 -31 -74 -36 -85 -5 -11 -76 -175 -158 -365 -82 -190 -158 -365 -169 -390 -11 -25 -44 -99 -73 -165 -76 -174 -226 -506 -272 -605 -22 -47 -57 -123 -78 -170 -157 -352 -386 -797 -523 -1015 -128 -205 -216 -303 -294 -330 -76 -26 -132 31 -169 173 -22 83 -29 184 -28 397 0 202 8 366 28 555 3 30 8 89 11 131 3 41 7 84 9 95 2 10 7 55 10 99 4 44 9 91 11 105 2 14 7 50 10 80 3 30 8 71 10 90 2 19 7 60 10 90 3 30 8 71 10 90 5 38 7 51 30 240 9 69 18 136 20 150 2 14 6 45 10 70 6 47 14 107 20 150 2 14 11 77 20 140 8 63 17 126 19 140 2 14 7 47 11 73 4 27 8 57 10 66 2 10 6 42 10 71 4 29 9 62 11 74 2 11 6 38 9 61 3 22 10 65 15 95 5 30 12 73 15 95 3 23 7 50 9 60 3 19 13 80 21 135 2 14 14 84 25 155 12 72 23 141 25 155 2 14 11 68 20 120 19 114 22 132 30 190 3 25 8 52 10 60 4 14 8 37 20 113 3 17 10 55 15 82 5 28 12 68 15 89 3 21 7 48 10 60 3 12 7 33 9 49 3 15 10 53 15 85 6 31 13 73 16 92 3 19 8 42 10 50 2 8 6 33 10 55 3 22 14 87 25 145 11 58 22 121 25 140 5 28 15 85 20 110 1 3 5 25 9 50 5 25 10 54 12 65 2 11 18 94 35 185 17 91 33 174 35 185 2 11 8 45 14 75 11 60 17 92 25 130 2 14 7 41 10 60 4 19 10 53 15 75 5 22 11 54 14 70 3 17 8 41 11 55 3 14 21 108 41 210 41 214 39 201 60 303 8 42 17 87 20 100 2 12 6 31 8 42 2 11 31 155 64 320 34 165 63 311 66 325 7 30 35 167 40 195 2 11 20 99 39 195 20 96 38 187 41 203 3 15 8 39 11 55 3 15 17 81 31 146 13 66 27 135 30 155 3 20 7 43 10 51 3 8 14 62 25 120 26 132 28 141 33 165 22 101 37 177 42 210 3 22 8 43 10 46 2 3 6 21 9 40 3 19 17 90 31 159 14 69 28 136 30 150 3 14 7 32 9 40 2 8 7 31 10 50 3 19 8 42 10 50 2 8 7 31 10 50 3 19 8 42 10 50 2 8 7 31 10 50 3 19 12 64 20 100 8 36 17 77 19 93 3 15 7 35 10 45 3 9 7 34 11 56 3 21 7 41 9 45 2 3 7 23 10 43 3 21 10 57 15 80 6 24 13 58 16 77 3 19 19 98 35 175 16 78 31 152 34 166 2 14 12 61 21 105 10 44 18 89 20 100 1 11 14 74 29 140 14 66 27 131 30 145 2 14 7 36 10 50 3 14 8 36 10 50 2 14 7 36 10 50 3 14 8 36 10 50 3 14 25 124 50 245 26 121 49 233 51 248 3 16 19 90 35 165 16 76 59 277 94 448 36 170 68 317 71 325 3 8 7 28 9 44 2 17 27 136 55 265 29 129 54 246 57 260 2 14 13 63 24 110 10 47 21 96 24 110 2 14 9 45 15 70 5 25 12 56 15 70 3 14 12 59 21 100 9 41 18 82 20 90 2 8 11 51 20 95 47 220 109 521 119 575 2 14 18 99 35 190 17 91 33 181 36 200 3 19 10 60 15 90 5 30 12 78 15 105 3 28 12 86 20 130 8 44 17 96 20 115 3 19 7 46 10 60 4 24 7 48 20 150 3 25 8 61 10 80 19 131 25 403 13 515 -27 243 -135 328 -463 363 -132 14 -657 5 -775 -13 -14 -2 -61 -6 -105 -10 -44 -3 -91 -8 -105 -10 -14 -2 -56 -6 -95 -9 -85 -8 -171 -17 -205 -21 -14 -2 -56 -7 -95 -11 -38 -3 -78 -8 -87 -9 -9 -2 -48 -7 -85 -10 -37 -4 -75 -8 -83 -10 -8 -2 -40 -7 -70 -10 -61 -7 -122 -14 -160 -20 -14 -2 -49 -7 -79 -10 -30 -4 -62 -8 -71 -10 -9 -2 -41 -6 -71 -10 -30 -3 -61 -8 -69 -10 -8 -2 -40 -7 -70 -10 -30 -4 -57 -8 -60 -10 -3 -1 -32 -6 -65 -9 -33 -4 -67 -9 -75 -11 -15 -4 -30 -7 -125 -21 -27 -5 -52 -9 -55 -9 -3 -1 -30 -5 -60 -9 -30 -4 -71 -12 -90 -16 -19 -5 -53 -11 -75 -14 -38 -5 -71 -11 -125 -21 -40 -8 -71 -14 -130 -25 -30 -6 -66 -12 -80 -15 -14 -3 -36 -7 -50 -10 -76 -14 -327 -66 -359 -74 -20 -5 -49 -12 -66 -15 -16 -3 -50 -10 -75 -16 -25 -7 -56 -14 -70 -16 -14 -3 -72 -17 -130 -30 -58 -14 -112 -27 -120 -29 -8 -2 -35 -8 -60 -14 -705 -175 -1511 -428 -2015 -635 -44 -18 -96 -39 -115 -46 -35 -13 -421 -176 -495 -209 -22 -10 -74 -33 -115 -51 -41 -19 -122 -56 -180 -83 -58 -26 -121 -56 -140 -64 -81 -37 -664 -327 -765 -381 -702 -374 -1272 -729 -1842 -1147 -223 -164 -616 -482 -789 -640 -6 -5 -51 -46 -100 -90 -216 -194 -603 -576 -769 -759 -50 -55 -99 -109 -110 -121 -11 -13 -42 -49 -70 -81 -27 -32 -59 -68 -70 -80 -11 -11 -73 -85 -137 -165 -64 -79 -129 -157 -143 -174 -15 -16 -45 -52 -68 -78 -92 -109 -160 -181 -347 -367 -164 -165 -247 -241 -435 -399 -73 -61 -362 -270 -521 -376 -364 -243 -796 -485 -1124 -629 -36 -16 -87 -39 -115 -52 -272 -122 -848 -316 -1040 -348 -16 -3 -55 -10 -85 -16 -60 -12 -71 -14 -145 -25 -27 -4 -58 -9 -68 -11 -16 -3 -56 -6 -212 -19 -209 -18 -511 1 -735 45 -30 6 -66 13 -80 16 -95 18 -363 107 -469 155 -271 123 -487 256 -708 436 -174 140 -263 228 -478 467 -5 6 -22 27 -37 48 -15 20 -33 42 -41 50 -25 26 -174 234 -239 333 -60 92 -90 143 -177 295 -48 84 -194 382 -241 495 -81 190 -200 523 -245 685 -19 68 -49 174 -65 225 -8 28 -77 325 -86 370 -2 11 -11 54 -19 95 -29 141 -50 259 -70 390 -9 58 -18 116 -20 130 -4 28 -10 69 -25 190 -19 151 -25 205 -35 313 -3 31 -7 81 -10 110 -2 28 -7 93 -11 142 -3 50 -7 110 -9 135 -32 422 -22 1349 20 1840 3 30 7 84 10 120 9 116 23 269 30 330 2 19 7 64 10 100 4 36 8 76 10 90 2 14 6 50 10 80 7 65 15 125 20 160 2 14 11 75 19 135 25 181 26 189 32 225 4 19 8 45 9 57 2 12 6 34 9 50 3 15 8 46 11 68 3 22 8 51 11 65 2 14 7 39 10 55 5 30 49 268 59 315 3 14 8 41 11 60 4 19 9 44 11 55 2 11 6 31 9 45 3 14 14 63 24 110 10 47 21 96 24 110 2 14 23 104 46 200 23 96 43 180 44 185 1 6 5 19 9 30 3 11 8 31 11 45 5 23 10 46 20 88 3 9 14 49 25 87 11 39 32 115 46 170 74 280 215 723 363 1140 43 122 75 208 209 555 13 36 31 79 39 95 7 17 34 82 60 145 73 182 210 492 324 735 56 121 278 563 325 650 84 154 101 185 173 315 102 183 324 554 334 558 4 2 8 8 8 12 0 31 433 669 659 970 165 221 535 680 571 710 4 3 44 48 90 100 366 412 773 806 1130 1092 69 55 134 108 145 117 84 69 486 345 580 397 90 50 123 69 145 84 37 24 290 151 410 205 191 86 551 215 645 231 17 2 55 9 85 14 30 5 78 12 105 15 28 3 84 10 125 15 82 9 441 6 505 -5 233 -37 423 -121 575 -253 80 -70 75 -65 137 -137 208 -244 306 -557 307 -980 0 -89 -12 -308 -19 -328 -2 -6 -6 -37 -10 -67 -8 -77 -30 -200 -55 -304 -11 -50 -22 -97 -24 -105 -29 -149 -197 -644 -275 -816 -10 -22 -31 -68 -45 -103 -130 -310 -391 -759 -623 -1073 -185 -251 -486 -574 -673 -722 -271 -216 -520 -325 -775 -341 -121 -8 -168 -17 -243 -48 -82 -34 -156 -88 -199 -145 -15 -21 -30 -40 -33 -43 -3 -3 -18 -32 -32 -65 -106 -240 -94 -580 32 -895 142 -358 390 -677 750 -964 56 -44 209 -147 308 -207 265 -160 519 -259 752 -294 25 -4 56 -8 70 -10 66 -10 196 -18 300 -18 110 -1 328 11 339 17 3 2 37 7 76 11 38 4 72 8 75 10 3 1 27 6 54 9 27 4 52 9 55 11 3 1 24 6 46 9 22 4 48 9 58 12 11 3 29 7 40 9 12 1 51 10 87 20 36 9 72 18 80 20 227 48 534 175 770 318 73 44 241 160 262 180 7 7 23 20 36 29 129 89 409 380 565 588 31 41 64 84 73 95 53 66 227 335 306 475 57 99 73 129 123 230 169 336 290 655 389 1030 63 238 114 484 141 680 3 25 8 58 11 74 3 16 7 52 9 80 3 28 7 61 9 73 3 13 8 64 12 115 3 51 8 100 9 109 6 28 18 358 18 464 -1 113 -12 447 -17 485 -2 14 -7 67 -10 118 -4 51 -9 100 -10 110 -2 9 -7 48 -11 85 -3 37 -8 76 -10 85 -1 9 -6 40 -10 67 -18 130 -25 178 -30 195 -2 8 -7 31 -10 50 -11 65 -56 264 -82 360 -28 105 -136 437 -157 485 -8 17 -31 71 -51 120 -20 50 -72 160 -115 246 -232 465 -511 830 -845 1109 -49 41 -92 77 -95 80 -3 3 -21 17 -40 30 -19 14 -39 28 -45 32 -177 141 -535 336 -818 446 -225 88 -397 137 -607 173 -82 14 -83 15 -155 23 -33 4 -78 9 -100 12 -83 9 -430 24 -438 18z m10443 -12309 c0 -2 -21 -18 -47 -36 -159 -107 -400 -331 -538 -499 -139 -169 -259 -335 -367 -507 -71 -112 -278 -461 -278 -468 0 -2 -15 -30 -34 -62 -113 -193 -464 -879 -575 -1123 -33 -71 -83 -180 -138 -300 -39 -83 -174 -354 -182 -365 -5 -5 -41 -73 -81 -150 -40 -77 -76 -144 -80 -150 -4 -5 -27 -46 -50 -90 -24 -44 -51 -93 -60 -110 -9 -16 -32 -57 -50 -90 -18 -33 -46 -84 -62 -114 -17 -29 -43 -76 -59 -103 -16 -27 -29 -51 -29 -53 0 -2 -31 -58 -70 -125 -38 -67 -70 -124 -70 -126 0 -3 -16 -30 -35 -60 -19 -30 -35 -56 -35 -58 0 -17 -311 -522 -466 -758 -147 -223 -473 -687 -551 -783 -5 -5 -60 -77 -123 -160 -63 -82 -119 -155 -125 -162 -5 -6 -21 -26 -35 -44 -86 -114 -411 -500 -520 -619 -320 -347 -567 -593 -875 -871 -33 -28 -155 -134 -365 -313 -59 -50 -268 -211 -358 -275 -223 -158 -459 -295 -692 -401 -318 -145 -649 -249 -955 -300 -71 -12 -141 -23 -155 -26 -153 -26 -442 -24 -570 5 -225 50 -399 182 -493 372 -44 90 -88 221 -101 303 -4 21 -8 41 -11 45 -9 15 -19 181 -19 311 -1 121 11 316 19 330 1 3 6 29 9 59 25 211 139 633 242 901 51 131 77 196 100 248 13 29 24 54 24 57 0 14 197 416 270 550 73 135 95 174 148 265 158 273 405 658 551 859 125 172 304 407 385 507 50 61 107 130 126 154 19 24 40 48 45 54 6 6 55 63 110 126 55 63 107 122 115 130 8 9 62 68 120 131 193 210 643 653 840 825 24 21 51 46 60 54 8 8 78 69 155 135 77 66 142 122 145 125 3 3 26 22 52 43 26 21 53 43 60 50 21 20 375 296 483 377 833 620 1843 1217 2645 1563 411 177 772 304 1300 457 66 19 305 82 330 86 14 3 52 12 85 20 57 14 210 48 265 58 14 3 50 10 80 16 30 6 69 13 85 16 17 3 49 9 73 15 23 5 59 12 80 15 20 2 60 9 87 14 28 5 70 12 95 16 25 3 47 8 49 10 6 5 21 5 21 -1z" transform="translate(0.000000,3542.000000) scale(0.100000,-0.100000)"/></g></svg>